<svg width="40" height="40" viewBox="0 0 40 40" fill="none" xmlns="http://www.w3.org/2000/svg">
<path d="M28.0838 0H11.9162C5.34559 0 0 5.34559 0 11.9162V28.0838C0 34.6544 5.34559 40 11.9162 40H28.0838C34.6544 40 40 34.6544 40 28.0838V11.9162C39.9999 5.34559 34.6543 0 28.0838 0ZM35.976 28.0838C35.976 32.4425 32.4425 35.976 28.0838 35.976H11.9162C7.5575 35.976 4.024 32.4425 4.024 28.0838V11.9162C4.024 7.55743 7.5575 4.024 11.9162 4.024H28.0838C32.4425 4.024 35.976 7.55743 35.976 11.9162V28.0838Z" fill="url(#paint0_linear)"/>
<path d="M20 9.65458C14.2955 9.65458 9.65458 14.2955 9.65458 19.9999C9.65458 25.7043 14.2955 30.3454 20 30.3454C25.7045 30.3454 30.3454 25.7044 30.3454 19.9999C30.3454 14.2955 25.7045 9.65458 20 9.65458ZM20 26.3214C16.5087 26.3214 13.6786 23.4913 13.6786 20C13.6786 16.5087 16.5088 13.6786 20 13.6786C23.4913 13.6786 26.3214 16.5087 26.3214 20C26.3214 23.4912 23.4912 26.3214 20 26.3214Z" fill="url(#paint1_linear)"/>
<path d="M30.3655 12.2112C31.7346 12.2112 32.8444 11.1014 32.8444 9.73225C32.8444 8.36315 31.7346 7.25327 30.3655 7.25327C28.9964 7.25327 27.8865 8.36315 27.8865 9.73225C27.8865 11.1014 28.9964 12.2112 30.3655 12.2112Z" fill="url(#paint2_linear)"/>
<defs>
<linearGradient id="paint0_linear" x1="30.3655" y1="39.8836" x2="30.3655" y2="0.310682" gradientUnits="userSpaceOnUse">
<stop stop-color="#E09B3D"/>
<stop offset="0.3" stop-color="#C74C4D"/>
<stop offset="0.6" stop-color="#C21975"/>
<stop offset="1" stop-color="#7024C4"/>
</linearGradient>
<linearGradient id="paint1_linear" x1="30.3655" y1="39.8836" x2="30.3655" y2="0.310682" gradientUnits="userSpaceOnUse">
<stop stop-color="#E09B3D"/>
<stop offset="0.3" stop-color="#C74C4D"/>
<stop offset="0.6" stop-color="#C21975"/>
<stop offset="1" stop-color="#7024C4"/>
</linearGradient>
<linearGradient id="paint2_linear" x1="30.3655" y1="39.8836" x2="30.3655" y2="0.310682" gradientUnits="userSpaceOnUse">
<stop stop-color="#E09B3D"/>
<stop offset="0.3" stop-color="#C74C4D"/>
<stop offset="0.6" stop-color="#C21975"/>
<stop offset="1" stop-color="#7024C4"/>
</linearGradient>
</defs>
</svg>
