<svg width="147" height="47" viewBox="0 0 147 47" fill="none" xmlns="http://www.w3.org/2000/svg">
<path d="M9.00293 44.2244C9.42126 44.1896 9.71409 44.0641 9.88143 43.8479C10.0557 43.6318 10.1394 43.318 10.1324 42.9067V38.7652H12.496C13.6534 38.7652 14.2321 39.4101 14.2321 40.7V44.5173H13.6673V40.6895C13.6673 40.1736 13.5558 39.804 13.3327 39.5809C13.1096 39.3509 12.7958 39.2358 12.3914 39.2358H10.6972V42.8544C10.6972 43.4191 10.5682 43.8479 10.3102 44.1408C10.0522 44.4336 9.6374 44.6044 9.06568 44.6532L9.00293 44.2244Z" fill="white"/>
<path d="M16.7811 39.9888L16.6451 38.7652H17.2098L17.3563 39.9888V41.5262L17.3458 42.1851L16.7811 42.321V39.9888Z" fill="white"/>
<path d="M22.6156 40.6895C22.6156 40.1736 22.5041 39.804 22.281 39.5809C22.0648 39.3509 21.7546 39.2358 21.3502 39.2358H19.5618V38.7652H21.4443C22.6087 38.7652 23.1908 39.4101 23.1908 40.7V44.5173H22.6156V40.6895Z" fill="white"/>
<path d="M29.9134 44.0362V44.5173H25.4896V44.0362H28.5852V40.6895C28.5852 40.1736 28.4737 39.804 28.2505 39.5809C28.0274 39.3509 27.7137 39.2358 27.3093 39.2358H25.4896V38.7652H27.4139C28.5713 38.7652 29.15 39.4101 29.15 40.7V44.0362H29.9134Z" fill="white"/>
<path d="M36.1098 38.7652C36.1028 40.2154 36.0436 41.2926 35.932 41.9968C35.8205 42.701 35.5695 43.2483 35.179 43.6388C34.7886 44.0222 34.1646 44.2976 33.307 44.465L31.7278 44.7787L31.6441 44.3185L33.3174 43.9943L33.558 43.9421L32.1461 38.7652H32.7213L34.0704 43.7852C34.5306 43.6039 34.8618 43.3285 35.064 42.959C35.2731 42.5894 35.4021 42.1084 35.4509 41.5157C35.5067 40.9161 35.5346 39.9993 35.5346 38.7652H36.1098Z" fill="white"/>
<path d="M42.6423 44.0362V44.5173H38.2185V44.0362H41.3141V40.6895C41.3141 40.1736 41.2026 39.804 40.9794 39.5809C40.7563 39.3509 40.4426 39.2358 40.0382 39.2358H38.2185V38.7652H40.1428C41.3002 38.7652 41.8789 39.4101 41.8789 40.7V44.0362H42.6423Z" fill="white"/>
<path d="M51.3403 40.6895C51.3403 40.1736 51.2287 39.804 51.0056 39.5809C50.7895 39.3509 50.4792 39.2358 50.0748 39.2358H47.7217V38.7652H50.169C51.3333 38.7652 51.9155 39.4101 51.9155 40.7V44.5173H51.3403V40.6895ZM47.7217 41.704L47.8054 41.0033H48.2969V44.5173H47.7217V41.704Z" fill="white"/>
<path d="M54.1652 44.0362H56.079V40.3967C56.079 40.0341 56.0023 39.7622 55.849 39.5809C55.7025 39.3997 55.4794 39.2846 55.1796 39.2358L54.4894 39.1208L54.5835 38.6501L55.347 38.7756C56.2115 38.929 56.6438 39.4659 56.6438 40.3862V44.5173H54.1652V44.0362Z" fill="white"/>
<path d="M59.2299 39.9888L59.094 38.7652H59.6587L59.8051 39.9888V41.5262L59.7947 42.1851L59.2299 42.321V39.9888Z" fill="white"/>
<path d="M66.1626 44.5173L63.6422 40.7732L62.4604 44.5173H61.9061L63.0461 40.9196L63.318 40.2607L62.3663 38.7652H62.9624L63.9141 40.2607L64.9704 41.8295L65.2005 40.9928L65.9012 38.7652H66.4659L65.3051 42.3315L66.7901 44.5173H66.1626Z" fill="white"/>
<path d="M71.6639 40.6895C71.6639 40.1736 71.5523 39.804 71.3292 39.5809C71.1131 39.3509 70.8028 39.2358 70.3984 39.2358H68.6101V38.7652H70.4925C71.6569 38.7652 72.2391 39.4101 72.2391 40.7V44.5173H71.6639V40.6895Z" fill="white"/>
<path d="M76.1693 44.0466C76.5528 43.9978 76.877 43.9072 77.1419 43.7747C77.4138 43.6353 77.6404 43.3912 77.8217 43.0426C78.0099 42.6871 78.125 42.192 78.1668 41.5576L78.3551 39.2358H74.5587V38.7652H78.9721L78.9407 39.2044L78.7525 41.4843C78.7037 42.4883 78.4492 43.2344 77.989 43.7224C77.5289 44.2105 76.9432 44.4754 76.232 44.5173L76.1693 44.0466ZM74.611 41.5262L74.6947 40.815H75.1862V46.6089H74.611V41.5262Z" fill="white"/>
<path d="M81.3582 39.9888L81.2223 38.7652H81.787L81.9334 39.9888V44.5173H81.3582V39.9888Z" fill="white"/>
<path d="M88.2909 44.5173L85.7705 40.7732L84.5887 44.5173H84.0344L85.1744 40.9196L85.4463 40.2607L84.4946 38.7652H85.0907L86.0424 40.2607L87.0987 41.8295L87.3288 40.9928L88.0295 38.7652H88.5942L87.4334 42.3315L88.9184 44.5173H88.2909Z" fill="white"/>
<path d="M93.5432 44.2244C93.9616 44.1896 94.2544 44.0641 94.4217 43.8479C94.596 43.6318 94.6797 43.318 94.6727 42.9067V38.7652H97.0363C98.1937 38.7652 98.7724 39.4101 98.7724 40.7V44.5173H98.2076V40.6895C98.2076 40.1736 98.0961 39.804 97.873 39.5809C97.6499 39.3509 97.3361 39.2358 96.9317 39.2358H95.2375V42.8544C95.2375 43.4191 95.1085 43.8479 94.8505 44.1408C94.5925 44.4336 94.1777 44.6044 93.606 44.6532L93.5432 44.2244Z" fill="white"/>
<path d="M101.321 39.9888L101.185 38.7652H101.75L101.897 39.9888V44.5173H101.321V39.9888Z" fill="white"/>
<path d="M109.415 40.1875C109.422 41.6587 109.045 42.7568 108.285 43.4819C107.532 44.207 106.399 44.587 104.886 44.6218L104.165 38.7652H104.719L105.096 41.8608C105.451 41.6656 105.727 41.4669 105.922 41.2647C106.124 41.0625 106.274 40.815 106.372 40.5222C106.469 40.2294 106.525 39.8529 106.539 39.3927V38.7861H107.093V39.3822C107.072 39.9051 106.996 40.3444 106.863 40.7C106.731 41.0556 106.528 41.3623 106.257 41.6203C105.985 41.8783 105.619 42.1188 105.158 42.3419L105.368 44.0989C106.511 44.0222 107.379 43.6736 107.972 43.0531C108.564 42.4256 108.857 41.4739 108.85 40.198L108.84 38.7652H109.404L109.415 40.1875Z" fill="white"/>
<path d="M114.333 40.4594C114.333 39.9365 114.427 39.5286 114.615 39.2358H111.603V38.7652H115.933V39.2358H115.17C114.988 39.5356 114.898 39.9435 114.898 40.4594V44.5173H114.333V40.4594Z" fill="white"/>
<path d="M120.767 38.7652C121.332 38.7652 121.761 38.943 122.053 39.2986C122.353 39.6541 122.503 40.1805 122.503 40.8778V44.5173H121.938V40.8673C121.938 40.3304 121.83 39.9261 121.614 39.6541C121.405 39.3753 121.088 39.2358 120.662 39.2358H118.769V44.5173H118.205V38.7652H120.767Z" fill="white"/>
<path d="M9.23145 0H54.7024L46.9723 32.2843H0.819336L9.23145 0Z" fill="#007AEA"/>
<path d="M24.669 26.828H21.7393V7.40466H24.669V26.828Z" fill="white"/>
<path d="M35.3734 26.828H27.3902V7.40466H30.3199V23.9137H35.3734V26.828Z" fill="white"/>
<path d="M98.1279 0H146.327L137.46 32.2843H89.7158L98.1279 0Z" fill="#F6E43A"/>
<path d="M111.32 26.59C110.029 26.59 108.933 26.1405 108.034 25.2414C107.135 24.3423 106.686 23.2521 106.686 21.9706V6.94971H109.553V21.9396C109.553 22.4047 109.719 22.8025 110.049 23.1332C110.38 23.4536 110.778 23.6138 111.243 23.6138C111.708 23.6138 112.101 23.4536 112.421 23.1332C112.752 22.8025 112.917 22.4047 112.917 21.9396V6.94971H115.971V21.9706C115.971 23.2727 115.516 24.3682 114.607 25.2569C113.697 26.1457 112.602 26.59 111.32 26.59Z" fill="white"/>
<path d="M121.858 21.9086L121.145 26.373H118.091L121.393 6.94971H125.424L128.679 26.373H125.61L124.912 21.9086H121.858ZM123.393 11.3986L122.308 19.0563H124.478L123.393 11.3986Z" fill="white"/>
<path d="M67.0255 26.8281H64.0957V7.40478H67.0255V26.8281Z" fill="white"/>
<path d="M73.0484 7.38928L76.9238 20.4415V7.38928H79.8535V26.8281H76.7067L72.6764 14.3804V26.8281H69.7466V7.38928H73.0484Z" fill="white"/>
</svg>
