<svg width="141" height="30" viewBox="0 0 141 30" fill="none" xmlns="http://www.w3.org/2000/svg">
<path d="M19.25 0.5625L19.2891 19.8203C19.263 21.1484 19.0221 22.3919 18.5664 23.5508C18.1107 24.7096 17.4727 25.7253 16.6523 26.5977C15.832 27.457 14.8555 28.1406 13.7227 28.6484C12.5898 29.1432 11.3464 29.3906 9.99219 29.3906C8.61198 29.3906 7.35547 29.1432 6.22266 28.6484C5.08984 28.1536 4.11979 27.4766 3.3125 26.6172C2.50521 25.7448 1.8737 24.7292 1.41797 23.5703C0.96224 22.3984 0.727865 21.1484 0.714844 19.8203L0.753906 0.5625H4.19141L4.26953 19.8203C4.28255 20.6667 4.41276 21.4805 4.66016 22.2617C4.92057 23.043 5.28516 23.7331 5.75391 24.332C6.23568 24.931 6.82812 25.4128 7.53125 25.7773C8.2474 26.1419 9.06771 26.3242 9.99219 26.3242C10.9167 26.3242 11.7305 26.1484 12.4336 25.7969C13.1367 25.4323 13.7227 24.9505 14.1914 24.3516C14.6732 23.7396 15.0378 23.043 15.2852 22.2617C15.5326 21.4805 15.6693 20.6667 15.6953 19.8203L15.7539 0.5625H19.25Z" fill="#FFC700"/>
<path d="M38.9961 21.6367H29.5039L27.2188 29H23.6055L32.7852 0.5625H35.8125L44.8359 29H41.2422L38.9961 21.6367ZM30.4805 18.4922H38.0391L34.2891 6.14844L30.4805 18.4922Z" fill="#0096EA"/>
<path d="M67.2578 29H63.5859L52.5508 7.75L52.4922 29H48.8398V0.5625H52.5117L63.5469 21.7734L63.6055 0.5625H67.2578V29ZM89.1133 15.8555H77.2383V25.9336H91.0859V29H73.625V0.5625H90.9102V3.64844H77.2383V12.7891H89.1133V15.8555ZM111.594 21.3047L113.762 0.5625H117.18L113.723 29H110.031L106.379 7.57422L102.688 29H98.9766L95.5195 0.5625H98.957L101.125 21.3047L104.777 0.5625H107.922L111.594 21.3047ZM136.398 21.8125C136.398 20.9401 136.197 20.2044 135.793 19.6055C135.402 19.0065 134.895 18.5052 134.27 18.1016C133.645 17.6849 132.954 17.3398 132.199 17.0664C131.457 16.793 130.741 16.5456 130.051 16.3242C129.048 15.9987 128.026 15.6081 126.984 15.1523C125.956 14.6966 125.012 14.1367 124.152 13.4727C123.306 12.8086 122.609 12.0273 122.062 11.1289C121.529 10.2174 121.262 9.14974 121.262 7.92578C121.262 6.70182 121.529 5.60807 122.062 4.64453C122.609 3.68099 123.319 2.86719 124.191 2.20312C125.064 1.53906 126.053 1.03776 127.16 0.699219C128.267 0.347656 129.38 0.171875 130.5 0.171875C131.737 0.171875 132.928 0.380208 134.074 0.796875C135.22 1.20052 136.236 1.77344 137.121 2.51562C138.007 3.25781 138.716 4.15625 139.25 5.21094C139.784 6.26562 140.064 7.44401 140.09 8.74609H136.379C136.275 7.92578 136.073 7.18359 135.773 6.51953C135.474 5.84245 135.077 5.26302 134.582 4.78125C134.087 4.29948 133.495 3.92839 132.805 3.66797C132.128 3.39453 131.359 3.25781 130.5 3.25781C129.81 3.25781 129.133 3.35547 128.469 3.55078C127.818 3.74609 127.232 4.03906 126.711 4.42969C126.203 4.82031 125.793 5.30208 125.48 5.875C125.181 6.44792 125.031 7.11198 125.031 7.86719C125.044 8.6875 125.253 9.38411 125.656 9.95703C126.06 10.5169 126.568 10.9922 127.18 11.3828C127.805 11.7734 128.475 12.099 129.191 12.3594C129.921 12.6198 130.604 12.8477 131.242 13.043C131.945 13.2643 132.655 13.5182 133.371 13.8047C134.087 14.0781 134.777 14.3971 135.441 14.7617C136.105 15.1263 136.724 15.5365 137.297 15.9922C137.87 16.4479 138.371 16.9688 138.801 17.5547C139.23 18.1276 139.562 18.7656 139.797 19.4688C140.044 20.1589 140.168 20.9271 140.168 21.7734C140.168 23.0495 139.882 24.1628 139.309 25.1133C138.749 26.0638 138.02 26.8581 137.121 27.4961C136.223 28.1211 135.207 28.5964 134.074 28.9219C132.941 29.2344 131.809 29.3906 130.676 29.3906C129.413 29.3906 128.176 29.1953 126.965 28.8047C125.754 28.4141 124.667 27.8542 123.703 27.125C122.753 26.3828 121.978 25.4844 121.379 24.4297C120.78 23.362 120.461 22.151 120.422 20.7969H124.113C124.23 21.6823 124.471 22.4701 124.836 23.1602C125.201 23.8372 125.669 24.4167 126.242 24.8984C126.815 25.3672 127.473 25.7253 128.215 25.9727C128.97 26.207 129.79 26.3242 130.676 26.3242C131.379 26.3242 132.069 26.2396 132.746 26.0703C133.436 25.888 134.048 25.6146 134.582 25.25C135.116 24.8724 135.552 24.4036 135.891 23.8438C136.229 23.2708 136.398 22.5938 136.398 21.8125Z" fill="black"/>
</svg>
