<svg width="146" height="47" viewBox="0 0 146 47" fill="none" xmlns="http://www.w3.org/2000/svg">
<path d="M8.18457 44.6155C8.6029 44.5807 8.89574 44.4552 9.06307 44.239C9.23737 44.0229 9.32104 43.7092 9.31407 43.2978V39.1563H11.6776C12.835 39.1563 13.4137 39.8012 13.4137 41.0911V44.9084H12.849V41.0806C12.849 40.5647 12.7374 40.1952 12.5143 39.972C12.2912 39.742 11.9775 39.6269 11.5731 39.6269H9.87882V43.2455C9.87882 43.8102 9.74983 44.239 9.49186 44.5319C9.23389 44.8247 8.81904 44.9955 8.24732 45.0443L8.18457 44.6155Z" fill="black"/>
<path d="M15.9627 40.3799L15.8267 39.1563H16.3915L16.5379 40.3799V41.9173L16.5274 42.5762L15.9627 42.7121V40.3799Z" fill="black"/>
<path d="M21.7973 41.0806C21.7973 40.5647 21.6857 40.1952 21.4626 39.972C21.2465 39.742 20.9362 39.6269 20.5318 39.6269H18.7435V39.1563H20.626C21.7903 39.1563 22.3725 39.8012 22.3725 41.0911V44.9084H21.7973V41.0806Z" fill="black"/>
<path d="M29.0951 44.4273V44.9084H24.6712V44.4273H27.7669V41.0806C27.7669 40.5647 27.6553 40.1952 27.4322 39.972C27.2091 39.742 26.8953 39.6269 26.4909 39.6269H24.6712V39.1563H26.5955C27.7529 39.1563 28.3316 39.8012 28.3316 41.0911V44.4273H29.0951Z" fill="black"/>
<path d="M35.2914 39.1563C35.2845 40.6065 35.2252 41.6837 35.1136 42.3879C35.0021 43.0921 34.7511 43.6394 34.3607 44.0299C33.9702 44.4133 33.3462 44.6887 32.4886 44.8561L30.9094 45.1698L30.8257 44.7097L32.4991 44.3855L32.7396 44.3332L31.3277 39.1563H31.9029L33.2521 44.1763C33.7122 43.995 34.0434 43.7196 34.2456 43.3501C34.4548 42.9806 34.5838 42.4995 34.6326 41.9068C34.6883 41.3072 34.7162 40.3904 34.7162 39.1563H35.2914Z" fill="black"/>
<path d="M41.824 44.4273V44.9084H37.4001V44.4273H40.4958V41.0806C40.4958 40.5647 40.3842 40.1952 40.1611 39.972C39.938 39.742 39.6242 39.6269 39.2198 39.6269H37.4001V39.1563H39.3244C40.4818 39.1563 41.0605 39.8012 41.0605 41.0911V44.4273H41.824Z" fill="black"/>
<path d="M50.5219 41.0806C50.5219 40.5647 50.4104 40.1952 50.1873 39.972C49.9711 39.742 49.6609 39.6269 49.2565 39.6269H46.9033V39.1563H49.3506C50.515 39.1563 51.0971 39.8012 51.0971 41.0911V44.9084H50.5219V41.0806ZM46.9033 42.0951L46.987 41.3944H47.4786V44.9084H46.9033V42.0951Z" fill="black"/>
<path d="M53.3468 44.4273H55.2607V40.7878C55.2607 40.4252 55.184 40.1533 55.0306 39.972C54.8842 39.7908 54.6611 39.6757 54.3613 39.6269L53.671 39.5119L53.7651 39.0413L54.5286 39.1668C55.3932 39.3201 55.8254 39.857 55.8254 40.7773V44.9084H53.3468V44.4273Z" fill="black"/>
<path d="M58.4116 40.3799L58.2756 39.1563H58.8404L58.9868 40.3799V41.9173L58.9763 42.5762L58.4116 42.7121V40.3799Z" fill="black"/>
<path d="M65.3443 44.9084L62.8238 41.1643L61.642 44.9084H61.0878L62.2277 41.3107L62.4996 40.6518L61.5479 39.1563H62.144L63.0957 40.6518L64.152 42.2206L64.3821 41.3839L65.0828 39.1563H65.6476L64.4867 42.7226L65.9718 44.9084H65.3443Z" fill="black"/>
<path d="M70.8455 41.0806C70.8455 40.5647 70.734 40.1952 70.5109 39.972C70.2947 39.742 69.9845 39.6269 69.5801 39.6269H67.7917V39.1563H69.6742C70.8385 39.1563 71.4207 39.8012 71.4207 41.0911V44.9084H70.8455V41.0806Z" fill="black"/>
<path d="M75.3509 44.4377C75.7344 44.3889 76.0586 44.2983 76.3235 44.1658C76.5955 44.0264 76.8221 43.7824 77.0033 43.4337C77.1916 43.0782 77.3066 42.5831 77.3485 41.9487L77.5367 39.6269H73.7403V39.1563H78.1538L78.1224 39.5956L77.9341 41.8755C77.8853 42.8795 77.6308 43.6255 77.1707 44.1135C76.7105 44.6016 76.1248 44.8665 75.4137 44.9084L75.3509 44.4377ZM73.7926 41.9173L73.8763 41.2061H74.3678V47H73.7926V41.9173Z" fill="black"/>
<path d="M80.5399 40.3799L80.4039 39.1563H80.9687L81.1151 40.3799V44.9084H80.5399V40.3799Z" fill="black"/>
<path d="M87.4726 44.9084L84.9521 41.1643L83.7703 44.9084H83.2161L84.356 41.3107L84.6279 40.6518L83.6762 39.1563H84.2724L85.2241 40.6518L86.2803 42.2206L86.5104 41.3839L87.2111 39.1563H87.7759L86.615 42.7226L88.1001 44.9084H87.4726Z" fill="black"/>
<path d="M92.7249 44.6155C93.1432 44.5807 93.436 44.4552 93.6034 44.239C93.7777 44.0229 93.8613 43.7092 93.8544 43.2978V39.1563H96.2179C97.3753 39.1563 97.954 39.8012 97.954 41.0911V44.9084H97.3893V41.0806C97.3893 40.5647 97.2777 40.1952 97.0546 39.972C96.8315 39.742 96.5177 39.6269 96.1134 39.6269H94.4191V43.2455C94.4191 43.8102 94.2901 44.239 94.0322 44.5319C93.7742 44.8247 93.3593 44.9955 92.7876 45.0443L92.7249 44.6155Z" fill="black"/>
<path d="M100.503 40.3799L100.367 39.1563H100.932L101.078 40.3799V44.9084H100.503V40.3799Z" fill="black"/>
<path d="M108.597 40.5786C108.604 42.0498 108.227 43.1479 107.467 43.873C106.714 44.5981 105.581 44.9781 104.068 45.013L103.347 39.1563H103.901L104.277 42.252C104.633 42.0567 104.908 41.858 105.103 41.6558C105.306 41.4536 105.456 41.2061 105.553 40.9133C105.651 40.6205 105.707 40.244 105.721 39.7838V39.1772H106.275V39.7733C106.254 40.2963 106.177 40.7355 106.045 41.0911C105.912 41.4467 105.71 41.7534 105.438 42.0114C105.166 42.2694 104.8 42.5099 104.34 42.733L104.549 44.49C105.693 44.4133 106.561 44.0647 107.153 43.4442C107.746 42.8167 108.039 41.865 108.032 40.5891L108.021 39.1563H108.586L108.597 40.5786Z" fill="black"/>
<path d="M113.515 40.8505C113.515 40.3276 113.609 39.9198 113.797 39.6269H110.785V39.1563H115.115V39.6269H114.351C114.17 39.9267 114.079 40.3346 114.079 40.8505V44.9084H113.515V40.8505Z" fill="black"/>
<path d="M119.949 39.1563C120.513 39.1563 120.942 39.3341 121.235 39.6897C121.535 40.0453 121.685 40.5717 121.685 41.2689V44.9084H121.12V41.2584C121.12 40.7216 121.012 40.3172 120.796 40.0453C120.587 39.7664 120.269 39.6269 119.844 39.6269H117.951V44.9084H117.386V39.1563H119.949Z" fill="black"/>
<path d="M8.41212 0.390869H53.883L46.153 32.6752H0L8.41212 0.390869Z" fill="#007AEA"/>
<path d="M23.8507 27.2188H20.9209V7.79553H23.8507V27.2188Z" fill="white"/>
<path d="M34.555 27.2188H26.5718V7.79553H29.5016V24.3046H34.555V27.2188Z" fill="white"/>
<path d="M97.3115 0.390991H145.511L136.644 32.6753H88.8994L97.3115 0.390991Z" fill="#F6E43A"/>
<path d="M110.503 26.9812C109.211 26.9812 108.116 26.5316 107.217 25.6325C106.318 24.7334 105.868 23.6432 105.868 22.3617V7.34082H108.736V22.3307C108.736 22.7958 108.901 23.1936 109.232 23.5243C109.563 23.8447 109.961 24.0049 110.426 24.0049C110.891 24.0049 111.283 23.8447 111.604 23.5243C111.934 23.1936 112.1 22.7958 112.1 22.3307V7.34082H115.154V22.3617C115.154 23.6638 114.699 24.7593 113.789 25.648C112.88 26.5368 111.785 26.9812 110.503 26.9812Z" fill="white"/>
<path d="M121.041 22.2997L120.328 26.7641H117.274L120.576 7.34082H124.606L127.861 26.7641H124.792L124.095 22.2997H121.041ZM122.575 11.7897L121.49 19.4475H123.661L122.575 11.7897Z" fill="white"/>
<path d="M66.21 27.2188H63.2803V7.79553H66.21V27.2188Z" fill="#171717"/>
<path d="M72.233 7.78003L76.1083 20.8322V7.78003H79.0381V27.2188H75.8913L71.8609 14.7712V27.2188H68.9312V7.78003H72.233Z" fill="#171717"/>
</svg>
