<svg width="40" height="40" viewBox="0 0 40 40" fill="none" xmlns="http://www.w3.org/2000/svg">
<path fill-rule="evenodd" clip-rule="evenodd" d="M19.995 0H20.005C31.0325 0 40 8.9725 40 20C40 31.0275 31.0325 40 20.005 40C15.9375 40 12.165 38.79 9.0025 36.695L1.315 39.1525L3.8075 31.7225C1.41 28.43 0 24.375 0 20C0 8.97 8.9675 0 19.995 0ZM27.7175 31.065C29.245 30.735 31.16 29.605 31.6425 28.2425C32.125 26.8775 32.125 25.715 31.985 25.4675C31.8719 25.2711 31.6046 25.1424 31.2056 24.9503C31.1017 24.9003 30.9888 24.8459 30.8675 24.785C30.28 24.4925 27.4225 23.08 26.8825 22.8925C26.3525 22.6925 25.8475 22.7625 25.4475 23.3275C25.3714 23.434 25.2955 23.5408 25.22 23.6469C24.7374 24.3256 24.2719 24.9803 23.885 25.3975C23.5325 25.7725 22.9575 25.82 22.475 25.62C22.4224 25.5981 22.3621 25.5737 22.2945 25.5464C21.5306 25.2379 19.8361 24.5535 17.785 22.7275C16.055 21.1875 14.88 19.27 14.54 18.695C14.2062 18.1182 14.4941 17.7799 14.7602 17.4673C14.7651 17.4615 14.7701 17.4558 14.775 17.45C14.9466 17.2377 15.1131 17.0609 15.2804 16.8833C15.4008 16.7555 15.5216 16.6272 15.645 16.485C15.6633 16.4639 15.6811 16.4434 15.6985 16.4234C15.9606 16.1221 16.1166 15.9426 16.2925 15.5675C16.4925 15.18 16.35 14.78 16.2075 14.485C16.1094 14.2784 15.5038 12.809 14.9839 11.5475C14.7614 11.0076 14.5546 10.5059 14.41 10.1575C14.0225 9.22999 13.7275 9.19499 13.14 9.16999C13.122 9.16909 13.1038 9.16817 13.0854 9.16724C12.8997 9.15784 12.6952 9.14749 12.47 9.14749C11.705 9.14749 10.9075 9.37249 10.425 9.86499C10.4081 9.88221 10.3905 9.90009 10.3723 9.91863C9.75502 10.5464 8.37997 11.9449 8.37997 14.7325C8.37997 17.5255 10.3617 20.2286 10.7284 20.7287C10.7385 20.7425 10.7474 20.7546 10.755 20.765C10.777 20.794 10.8186 20.8542 10.8791 20.9418C11.6278 22.0261 15.2746 27.3071 20.7125 29.56C25.3075 31.465 26.6725 31.2875 27.7175 31.065Z" fill="#4CAF50"/>
</svg>
